<mxfile host="app.diagrams.net" modified="2020-07-16T11:14:59.051Z" agent="5.0 (X11)" etag="kSt1DwSvcj2AscaUsOgO" version="13.4.4" type="github">
  <diagram id="7zDVnnWjsR-BoNhKVwcQ" name="Page-1">
    <mxGraphModel dx="2241" dy="1927" grid="1" gridSize="10" guides="1" tooltips="1" connect="1" arrows="1" fold="1" page="1" pageScale="1" pageWidth="827" pageHeight="1169" math="0" shadow="0">
      <root>
        <mxCell id="0" />
        <mxCell id="1" parent="0" />
        <mxCell id="i-cu7JivkZhU1WcwD_Rd-5" style="edgeStyle=none;rounded=0;orthogonalLoop=1;jettySize=auto;html=1;exitX=0.5;exitY=0;exitDx=0;exitDy=0;endArrow=block;endFill=0;fontSize=12;endSize=12;" parent="1" source="i-cu7JivkZhU1WcwD_Rd-3" target="jAowE2UNMXIYMA4io6as-1" edge="1">
          <mxGeometry relative="1" as="geometry" />
        </mxCell>
        <mxCell id="i-cu7JivkZhU1WcwD_Rd-3" value="StandardUser" style="html=1;fontSize=12;" parent="1" vertex="1">
          <mxGeometry x="450" y="180" width="110" height="50" as="geometry" />
        </mxCell>
        <mxCell id="i-cu7JivkZhU1WcwD_Rd-10" style="edgeStyle=orthogonalEdgeStyle;rounded=0;orthogonalLoop=1;jettySize=auto;html=1;exitX=1;exitY=0.5;exitDx=0;exitDy=0;endArrow=none;endFill=0;fontSize=12;" parent="1" source="jAowE2UNMXIYMA4io6as-1" target="jAowE2UNMXIYMA4io6as-13" edge="1">
          <mxGeometry relative="1" as="geometry" />
        </mxCell>
        <mxCell id="i-cu7JivkZhU1WcwD_Rd-11" style="edgeStyle=orthogonalEdgeStyle;rounded=0;orthogonalLoop=1;jettySize=auto;html=1;exitX=0;exitY=0.5;exitDx=0;exitDy=0;endArrow=none;endFill=0;fontSize=12;" parent="1" source="jAowE2UNMXIYMA4io6as-1" target="jAowE2UNMXIYMA4io6as-9" edge="1">
          <mxGeometry relative="1" as="geometry" />
        </mxCell>
        <mxCell id="jAowE2UNMXIYMA4io6as-1" value="User" style="swimlane;fontStyle=0;childLayout=stackLayout;horizontal=1;startSize=26;fillColor=none;horizontalStack=0;resizeParent=1;resizeParentMax=0;resizeLast=0;collapsible=1;marginBottom=0;" parent="1" vertex="1">
          <mxGeometry x="290" y="40" width="140" height="78" as="geometry" />
        </mxCell>
        <mxCell id="jAowE2UNMXIYMA4io6as-2" value="+ name: StringÂ " style="text;strokeColor=none;fillColor=none;align=left;verticalAlign=top;spacingLeft=4;spacingRight=4;overflow=hidden;rotatable=0;points=[[0,0.5],[1,0.5]];portConstraint=eastwest;" parent="jAowE2UNMXIYMA4io6as-1" vertex="1">
          <mxGeometry y="26" width="140" height="26" as="geometry" />
        </mxCell>
        <mxCell id="jAowE2UNMXIYMA4io6as-3" value="+ password: String" style="text;strokeColor=none;fillColor=none;align=left;verticalAlign=top;spacingLeft=4;spacingRight=4;overflow=hidden;rotatable=0;points=[[0,0.5],[1,0.5]];portConstraint=eastwest;" parent="jAowE2UNMXIYMA4io6as-1" vertex="1">
          <mxGeometry y="52" width="140" height="26" as="geometry" />
        </mxCell>
        <mxCell id="i-cu7JivkZhU1WcwD_Rd-6" style="edgeStyle=orthogonalEdgeStyle;rounded=0;orthogonalLoop=1;jettySize=auto;html=1;exitX=0.25;exitY=0;exitDx=0;exitDy=0;endArrow=none;endFill=0;fontSize=12;" parent="1" source="jAowE2UNMXIYMA4io6as-5" target="jAowE2UNMXIYMA4io6as-1" edge="1">
          <mxGeometry relative="1" as="geometry">
            <mxPoint x="320" y="220" as="targetPoint" />
            <Array as="points">
              <mxPoint x="320" y="481" />
            </Array>
          </mxGeometry>
        </mxCell>
        <mxCell id="hjSQRblLR4oHBTDVwX0K-3" value="OWNS" style="edgeLabel;html=1;align=center;verticalAlign=middle;resizable=0;points=[];" vertex="1" connectable="0" parent="i-cu7JivkZhU1WcwD_Rd-6">
          <mxGeometry x="0.1551" y="1" relative="1" as="geometry">
            <mxPoint as="offset" />
          </mxGeometry>
        </mxCell>
        <mxCell id="i-cu7JivkZhU1WcwD_Rd-7" style="edgeStyle=orthogonalEdgeStyle;rounded=0;orthogonalLoop=1;jettySize=auto;html=1;exitX=0.75;exitY=0;exitDx=0;exitDy=0;endArrow=none;endFill=0;fontSize=12;" parent="1" source="jAowE2UNMXIYMA4io6as-5" target="jAowE2UNMXIYMA4io6as-1" edge="1">
          <mxGeometry relative="1" as="geometry">
            <Array as="points">
              <mxPoint x="379" y="210" />
              <mxPoint x="379" y="210" />
            </Array>
          </mxGeometry>
        </mxCell>
        <mxCell id="hjSQRblLR4oHBTDVwX0K-4" value="LIKES" style="edgeLabel;html=1;align=center;verticalAlign=middle;resizable=0;points=[];" vertex="1" connectable="0" parent="i-cu7JivkZhU1WcwD_Rd-7">
          <mxGeometry x="0.4931" y="105" relative="1" as="geometry">
            <mxPoint x="104" y="105" as="offset" />
          </mxGeometry>
        </mxCell>
        <mxCell id="i-cu7JivkZhU1WcwD_Rd-8" style="edgeStyle=orthogonalEdgeStyle;rounded=0;orthogonalLoop=1;jettySize=auto;html=1;exitX=1;exitY=0.5;exitDx=0;exitDy=0;endArrow=none;endFill=0;fontSize=12;" parent="1" source="jAowE2UNMXIYMA4io6as-5" target="jAowE2UNMXIYMA4io6as-13" edge="1">
          <mxGeometry relative="1" as="geometry" />
        </mxCell>
        <mxCell id="i-cu7JivkZhU1WcwD_Rd-9" style="edgeStyle=orthogonalEdgeStyle;rounded=0;orthogonalLoop=1;jettySize=auto;html=1;exitX=0;exitY=0.5;exitDx=0;exitDy=0;endArrow=none;endFill=0;fontSize=12;" parent="1" source="jAowE2UNMXIYMA4io6as-5" target="jAowE2UNMXIYMA4io6as-9" edge="1">
          <mxGeometry relative="1" as="geometry" />
        </mxCell>
        <mxCell id="jAowE2UNMXIYMA4io6as-5" value="Restaurant" style="swimlane;fontStyle=0;childLayout=stackLayout;horizontal=1;startSize=26;fillColor=none;horizontalStack=0;resizeParent=1;resizeParentMax=0;resizeLast=0;collapsible=1;marginBottom=0;" parent="1" vertex="1">
          <mxGeometry x="274" y="481" width="140" height="104" as="geometry" />
        </mxCell>
        <mxCell id="jAowE2UNMXIYMA4io6as-6" value="+ name: String" style="text;strokeColor=none;fillColor=none;align=left;verticalAlign=top;spacingLeft=4;spacingRight=4;overflow=hidden;rotatable=0;points=[[0,0.5],[1,0.5]];portConstraint=eastwest;" parent="jAowE2UNMXIYMA4io6as-5" vertex="1">
          <mxGeometry y="26" width="140" height="26" as="geometry" />
        </mxCell>
        <mxCell id="jAowE2UNMXIYMA4io6as-7" value="+ description: String" style="text;strokeColor=none;fillColor=none;align=left;verticalAlign=top;spacingLeft=4;spacingRight=4;overflow=hidden;rotatable=0;points=[[0,0.5],[1,0.5]];portConstraint=eastwest;" parent="jAowE2UNMXIYMA4io6as-5" vertex="1">
          <mxGeometry y="52" width="140" height="26" as="geometry" />
        </mxCell>
        <mxCell id="jAowE2UNMXIYMA4io6as-8" value="+ price: int" style="text;strokeColor=none;fillColor=none;align=left;verticalAlign=top;spacingLeft=4;spacingRight=4;overflow=hidden;rotatable=0;points=[[0,0.5],[1,0.5]];portConstraint=eastwest;" parent="jAowE2UNMXIYMA4io6as-5" vertex="1">
          <mxGeometry y="78" width="140" height="26" as="geometry" />
        </mxCell>
        <mxCell id="jAowE2UNMXIYMA4io6as-9" value="City" style="swimlane;fontStyle=0;childLayout=stackLayout;horizontal=1;startSize=26;fillColor=none;horizontalStack=0;resizeParent=1;resizeParentMax=0;resizeLast=0;collapsible=1;marginBottom=0;" parent="1" vertex="1">
          <mxGeometry x="-30" y="268" width="140" height="104" as="geometry" />
        </mxCell>
        <mxCell id="jAowE2UNMXIYMA4io6as-10" value="+ name: String" style="text;strokeColor=none;fillColor=none;align=left;verticalAlign=top;spacingLeft=4;spacingRight=4;overflow=hidden;rotatable=0;points=[[0,0.5],[1,0.5]];portConstraint=eastwest;" parent="jAowE2UNMXIYMA4io6as-9" vertex="1">
          <mxGeometry y="26" width="140" height="26" as="geometry" />
        </mxCell>
        <mxCell id="jAowE2UNMXIYMA4io6as-11" value="+ latitude: double" style="text;strokeColor=none;fillColor=none;align=left;verticalAlign=top;spacingLeft=4;spacingRight=4;overflow=hidden;rotatable=0;points=[[0,0.5],[1,0.5]];portConstraint=eastwest;" parent="jAowE2UNMXIYMA4io6as-9" vertex="1">
          <mxGeometry y="52" width="140" height="26" as="geometry" />
        </mxCell>
        <mxCell id="jAowE2UNMXIYMA4io6as-12" value="+ longitude: double" style="text;strokeColor=none;fillColor=none;align=left;verticalAlign=top;spacingLeft=4;spacingRight=4;overflow=hidden;rotatable=0;points=[[0,0.5],[1,0.5]];portConstraint=eastwest;" parent="jAowE2UNMXIYMA4io6as-9" vertex="1">
          <mxGeometry y="78" width="140" height="26" as="geometry" />
        </mxCell>
        <mxCell id="jAowE2UNMXIYMA4io6as-13" value="Cuisine" style="swimlane;fontStyle=0;childLayout=stackLayout;horizontal=1;startSize=26;fillColor=none;horizontalStack=0;resizeParent=1;resizeParentMax=0;resizeLast=0;collapsible=1;marginBottom=0;" parent="1" vertex="1">
          <mxGeometry x="560" y="280" width="140" height="52" as="geometry" />
        </mxCell>
        <mxCell id="jAowE2UNMXIYMA4io6as-14" value="+ type: String" style="text;strokeColor=none;fillColor=none;align=left;verticalAlign=top;spacingLeft=4;spacingRight=4;overflow=hidden;rotatable=0;points=[[0,0.5],[1,0.5]];portConstraint=eastwest;" parent="jAowE2UNMXIYMA4io6as-13" vertex="1">
          <mxGeometry y="26" width="140" height="26" as="geometry" />
        </mxCell>
        <mxCell id="i-cu7JivkZhU1WcwD_Rd-14" value="0..*" style="text;html=1;strokeColor=none;fillColor=none;align=center;verticalAlign=middle;whiteSpace=wrap;rounded=0;fontSize=12;" parent="1" vertex="1">
          <mxGeometry x="245" y="60" width="40" height="20" as="geometry" />
        </mxCell>
        <mxCell id="i-cu7JivkZhU1WcwD_Rd-17" value="0..*" style="text;html=1;strokeColor=none;fillColor=none;align=center;verticalAlign=middle;whiteSpace=wrap;rounded=0;fontSize=12;" parent="1" vertex="1">
          <mxGeometry x="234" y="510" width="40" height="20" as="geometry" />
        </mxCell>
        <mxCell id="i-cu7JivkZhU1WcwD_Rd-19" value="0..*" style="text;html=1;strokeColor=none;fillColor=none;align=center;verticalAlign=middle;whiteSpace=wrap;rounded=0;fontSize=12;" parent="1" vertex="1">
          <mxGeometry x="374" y="118" width="40" height="20" as="geometry" />
        </mxCell>
        <mxCell id="i-cu7JivkZhU1WcwD_Rd-20" value="1" style="text;html=1;strokeColor=none;fillColor=none;align=center;verticalAlign=middle;whiteSpace=wrap;rounded=0;fontSize=12;" parent="1" vertex="1">
          <mxGeometry x="37" y="372" width="40" height="20" as="geometry" />
        </mxCell>
        <mxCell id="i-cu7JivkZhU1WcwD_Rd-21" value="1" style="text;html=1;strokeColor=none;fillColor=none;align=center;verticalAlign=middle;whiteSpace=wrap;rounded=0;fontSize=12;" parent="1" vertex="1">
          <mxGeometry x="37" y="247" width="40" height="20" as="geometry" />
        </mxCell>
        <mxCell id="i-cu7JivkZhU1WcwD_Rd-22" value="0..*" style="text;html=1;strokeColor=none;fillColor=none;align=center;verticalAlign=middle;whiteSpace=wrap;rounded=0;fontSize=12;" parent="1" vertex="1">
          <mxGeometry x="280" y="461" width="40" height="20" as="geometry" />
        </mxCell>
        <mxCell id="i-cu7JivkZhU1WcwD_Rd-23" value="1" style="text;html=1;strokeColor=none;fillColor=none;align=center;verticalAlign=middle;whiteSpace=wrap;rounded=0;fontSize=12;" parent="1" vertex="1">
          <mxGeometry x="310" y="118" width="40" height="20" as="geometry" />
        </mxCell>
        <mxCell id="i-cu7JivkZhU1WcwD_Rd-24" value="0..*" style="text;html=1;strokeColor=none;fillColor=none;align=center;verticalAlign=middle;whiteSpace=wrap;rounded=0;fontSize=12;" parent="1" vertex="1">
          <mxGeometry x="380" y="461" width="40" height="20" as="geometry" />
        </mxCell>
        <mxCell id="i-cu7JivkZhU1WcwD_Rd-26" value="0..*" style="text;html=1;strokeColor=none;fillColor=none;align=center;verticalAlign=middle;whiteSpace=wrap;rounded=0;fontSize=12;" parent="1" vertex="1">
          <mxGeometry x="430" y="60" width="40" height="20" as="geometry" />
        </mxCell>
        <mxCell id="i-cu7JivkZhU1WcwD_Rd-27" value="0..*" style="text;html=1;strokeColor=none;fillColor=none;align=center;verticalAlign=middle;whiteSpace=wrap;rounded=0;fontSize=12;" parent="1" vertex="1">
          <mxGeometry x="630" y="260" width="40" height="20" as="geometry" />
        </mxCell>
        <mxCell id="i-cu7JivkZhU1WcwD_Rd-28" value="1" style="text;html=1;strokeColor=none;fillColor=none;align=center;verticalAlign=middle;whiteSpace=wrap;rounded=0;fontSize=12;" parent="1" vertex="1">
          <mxGeometry x="590" y="332" width="40" height="20" as="geometry" />
        </mxCell>
        <mxCell id="i-cu7JivkZhU1WcwD_Rd-29" value="0..*" style="text;html=1;strokeColor=none;fillColor=none;align=center;verticalAlign=middle;whiteSpace=wrap;rounded=0;fontSize=12;" parent="1" vertex="1">
          <mxGeometry x="414" y="510" width="40" height="20" as="geometry" />
        </mxCell>
        <mxCell id="y_-QGrZcyqDYWiW5Sh1V-2" value="" style="endArrow=none;html=1;rounded=0;entryX=0.75;entryY=0;entryDx=0;entryDy=0;exitX=0.25;exitY=0;exitDx=0;exitDy=0;" parent="1" source="jAowE2UNMXIYMA4io6as-1" target="jAowE2UNMXIYMA4io6as-1" edge="1">
          <mxGeometry width="50" height="50" relative="1" as="geometry">
            <mxPoint x="-30" y="660" as="sourcePoint" />
            <mxPoint x="20" y="610" as="targetPoint" />
            <Array as="points">
              <mxPoint x="325" y="-10" />
              <mxPoint x="350" y="-10" />
              <mxPoint x="395" y="-10" />
            </Array>
          </mxGeometry>
        </mxCell>
        <mxCell id="y_-QGrZcyqDYWiW5Sh1V-3" value="0..*" style="text;html=1;resizable=0;points=[];autosize=1;align=left;verticalAlign=top;spacingTop=-4;" parent="1" vertex="1">
          <mxGeometry x="400" y="16" width="30" height="20" as="geometry" />
        </mxCell>
        <mxCell id="y_-QGrZcyqDYWiW5Sh1V-4" value="0..*" style="text;html=1;resizable=0;points=[];autosize=1;align=left;verticalAlign=top;spacingTop=-4;" parent="1" vertex="1">
          <mxGeometry x="290" y="15" width="30" height="20" as="geometry" />
        </mxCell>
        <mxCell id="rSsApNGZaOm8Qvb9cAqO-3" style="rounded=0;orthogonalLoop=1;jettySize=auto;html=1;endArrow=blockThin;endFill=0;endSize=12;" parent="1" source="rSsApNGZaOm8Qvb9cAqO-1" target="jAowE2UNMXIYMA4io6as-1" edge="1">
          <mxGeometry relative="1" as="geometry" />
        </mxCell>
        <mxCell id="rSsApNGZaOm8Qvb9cAqO-1" value="Admin" style="html=1;fontSize=12;" parent="1" vertex="1">
          <mxGeometry x="150" y="180" width="110" height="50" as="geometry" />
        </mxCell>
      </root>
    </mxGraphModel>
  </diagram>
</mxfile>
